HIERARCHY
ROOT hip
{
	OFFSET 0.000000 0.000000 0.000000 
	CHANNELS 6 Xposition Yposition Zposition Xrotation Zrotation Yrotation
	JOINT abdomen
	{
		OFFSET 0.000000 3.402643 0.000000 
		CHANNELS 3 Xrotation Zrotation Yrotation
		JOINT chest
		{
			OFFSET 0.000000 8.438565 -0.680529 
			CHANNELS 3 Xrotation Zrotation Yrotation
			JOINT neck
			{
				OFFSET 0.000000 10.207942 -0.272212 
				CHANNELS 3 Xrotation Zrotation Yrotation
				JOINT head
				{
					OFFSET 0.000000 3.130431 0.000000 
					CHANNELS 3 Xrotation Zrotation Yrotation
					End Site
					{
						OFFSET 0.000000 3.130435 0.000000 
					}
				}
			}
			JOINT lCollar
			{
				OFFSET 3.470700 6.669187 -0.816635 
				CHANNELS 3 Yrotation Zrotation Xrotation
				JOINT lShldr
				{
					OFFSET 3.198488 0.000000 0.000000 
					CHANNELS 3 Zrotation Yrotation Xrotation
					JOINT lForeArm
					{
						OFFSET 10.139888 0.000000 0.000000 
						CHANNELS 3 Yrotation Zrotation Xrotation
						JOINT lHand
						{
							OFFSET 8.370511 0.000000 0.000000 
							CHANNELS 3 Zrotation Yrotation Xrotation
							End Site
							{
								OFFSET 4.083176 0.000000 0.000000 
							}
						}
					}
				}
			}
			JOINT rCollar
			{
				OFFSET -3.470700 6.669187 -0.816635 
				CHANNELS 3 Yrotation Zrotation Xrotation
				JOINT rShldr
				{
					OFFSET -3.198488 0.000000 0.000000 
					CHANNELS 3 Zrotation Yrotation Xrotation
					JOINT rForeArm
					{
						OFFSET -10.139888 0.000000 0.000000 
						CHANNELS 3 Yrotation Zrotation Xrotation
						JOINT rHand
						{
							OFFSET -8.370511 0.000000 0.000000 
							CHANNELS 3 Zrotation Yrotation Xrotation
							End Site
							{
								OFFSET -4.083176 0.000000 0.000000 
							}
						}
					}
				}
			}
		}
	}
	JOINT lThigh
	{
		OFFSET 5.308129 -1.633274 1.361059 
		CHANNELS 3 Xrotation Zrotation Yrotation
		JOINT lShin
		{
			OFFSET -2.041588 -20.007561 0.000000 
			CHANNELS 3 Xrotation Zrotation Yrotation
			JOINT lFoot
			{
				OFFSET 0.000000 -19.190928 -1.224953 
				CHANNELS 3 Xrotation Yrotation Zrotation
				End Site
				{
					OFFSET 0.000000 -2.449906 4.627600 
				}
			}
		}
	}
	JOINT rThigh
	{
		OFFSET -5.308129 -1.633274 1.361059 
		CHANNELS 3 Xrotation Zrotation Yrotation
		JOINT rShin
		{
			OFFSET 2.041588 -20.007561 0.000000 
			CHANNELS 3 Xrotation Zrotation Yrotation
			JOINT rFoot
			{
				OFFSET 0.000000 -19.190928 -1.224953 
				CHANNELS 3 Xrotation Yrotation Zrotation
				End Site
				{
					OFFSET 0.000000 -2.449906 4.627600 
				}
			}
		}
	}
}
MOTION
Frames: 18
Frame Time: 0.033333
-0.044726 46.655796 -0.347107 0.238878 11.142484 95.369446 0.000000 0.000000 0.000000 19.747915 0.762883 5.820842 17.599489 3.296457 0.172074 -25.450445 -2.913879 1.030246 -9.616523 7.622797 25.000000 -86.473312 -0.296479 -3.578800 -53.666553 5.441479 72.677406 -23.134483 -15.042715 -51.774738 -14.673826 -2.855227 23.764359 56.749596 11.476465 62.444321 41.077869 -30.260965 32.502354 40.173229 0.145585 -81.058090 24.177526 6.563166 18.253475 9.133185 6.090524 1.583892 1.054060 -29.593700 2.106601 29.192875 -1.806189 0.320277 5.724751 -4.127106 -1.302645 8.608888 -12.724876 29.079411 
-0.035803 46.667915 -0.428352 0.099593 11.318342 95.265228 0.000000 0.000000 0.000000 19.778566 2.030995 6.111246 17.778128 3.425285 0.178984 -25.531555 -3.259132 1.054642 -9.757921 7.562922 25.000000 -86.260506 -0.295615 -3.704965 -53.848492 4.637043 73.819450 -23.221916 -14.175780 -51.967743 -14.864819 -2.372971 23.894917 56.232922 11.371403 62.169086 40.704597 -30.216856 31.666662 39.927811 -1.047369 -81.138336 24.480896 6.611782 18.226799 9.024844 6.041152 1.579318 1.070298 -29.381264 2.133020 29.623978 -1.620720 0.378425 5.297861 -4.411770 -1.399626 8.634702 -12.613508 28.967239 
-0.031005 46.676014 -0.474413 0.119545 11.396460 95.337585 0.000000 0.000000 0.000000 19.694670 2.924130 6.319683 18.108269 3.763266 0.201940 -25.689589 -3.535881 0.943227 -10.197452 7.214252 25.000000 -85.741096 -0.230511 -3.996111 -54.010036 4.295572 75.176781 -23.527544 -13.618206 -51.997173 -15.375378 -1.958828 23.977280 55.907127 11.315427 61.993439 40.549206 -30.311676 31.796265 39.608421 -1.225274 -81.107018 24.571489 6.553829 18.189695 8.983209 6.033669 1.587297 1.078544 -29.384909 2.228809 29.955189 -1.630949 0.395874 4.853074 -4.491992 -1.469658 8.841707 -12.626811 29.018669 
-0.052281 46.667530 -0.495271 0.298607 11.152196 95.527306 0.000000 0.000000 0.000000 19.323648 3.456317 6.465130 18.334906 4.602820 0.266988 -26.091578 -3.768306 0.749176 -10.842505 6.909609 25.000000 -85.173927 -0.153297 -4.316085 -54.223530 4.151741 76.889404 -23.804701 -13.001067 -52.060650 -16.088097 -1.928909 23.957870 56.162731 11.426270 62.121281 40.240154 -30.250027 31.593979 39.044861 -1.200088 -81.028175 24.169649 6.328871 18.154182 9.093746 6.150168 1.596837 1.074145 -29.559683 2.272099 29.954580 -1.835930 0.326985 4.398302 -4.427968 -1.478107 9.088380 -12.768338 29.108109 
-0.065566 46.662045 -0.416033 0.069622 10.927727 95.385910 0.000000 0.000000 0.000000 19.027487 3.785797 6.558694 18.312841 4.862272 0.286442 -25.799866 -3.595820 0.661864 -10.606361 6.742721 25.000000 -84.601234 -0.183420 -4.635481 -53.940353 3.971680 77.255241 -23.761282 -10.860166 -53.021633 -16.224140 -1.954826 23.942539 56.534859 11.318889 62.347252 40.516125 -30.517452 32.156433 38.874458 -0.537341 -80.944344 23.854118 6.699643 18.334120 9.286098 5.996879 1.540416 0.991411 -29.570120 2.217698 30.041611 -1.474606 0.433942 3.744530 -4.622548 -1.568855 9.090915 -12.651956 28.727205 
-0.065869 46.662903 -0.353002 0.437337 10.732116 95.726364 0.000000 0.000000 0.000000 18.790497 3.217701 6.446122 18.143629 5.110652 0.304411 -25.515829 -3.818558 0.209991 -10.813883 6.826758 25.000000 -84.351997 -0.327488 -4.780334 -53.690189 4.224674 77.723663 -23.780924 -9.561336 -53.572857 -16.729460 -1.829772 23.956768 56.655094 11.022756 62.458179 41.327629 -30.780474 32.862007 39.164810 -0.359306 -80.958618 23.476242 6.435734 18.269154 9.410634 6.112539 1.569503 0.995015 -29.923561 2.266438 30.254257 -1.728113 0.361782 3.192026 -4.549155 -1.605783 8.918278 -13.004743 28.309196 
-0.066942 46.662384 -0.316609 1.280922 10.427138 96.493103 0.000000 0.000000 0.000000 18.486473 1.843150 6.143748 17.938381 5.138360 0.310656 -25.274446 -4.105648 -0.548741 -11.551127 7.010743 25.000000 -84.407043 -0.574665 -4.740994 -53.375484 5.135677 77.890587 -23.960476 -9.498202 -53.558929 -17.535631 -1.774909 23.934198 56.619049 10.552788 62.519424 43.106468 -30.957253 34.556393 39.601704 -0.248735 -80.970230 22.869688 5.586269 18.003954 9.559598 6.494736 1.645759 1.025867 -30.618294 2.404402 30.327639 -2.558751 0.114337 2.886317 -4.164076 -1.543909 8.825571 -13.684206 28.232380 
-0.082493 46.652729 -0.266023 1.874156 9.994760 97.054054 0.000000 0.000000 0.000000 18.155016 0.501092 5.857750 17.700811 5.067505 0.300773 -25.129322 -4.145154 -1.016119 -11.992819 7.143809 25.000000 -84.481186 -0.637006 -4.692498 -53.156803 5.900286 77.176994 -24.079060 -9.824054 -53.452892 -17.992975 -2.091279 23.808815 57.104713 10.295415 62.834599 44.226624 -31.089926 36.115940 40.485313 0.030203 -81.041359 22.151747 4.971406 17.845179 9.696259 6.816864 1.699414 1.069094 -31.164459 2.534359 29.924055 -3.241519 -0.097193 3.032882 -3.696433 -1.422034 8.561420 -14.285538 27.994961 
-0.100795 46.639698 -0.138616 1.802517 9.585187 97.048973 0.000000 0.000000 0.000000 17.862232 -0.566990 5.627742 17.514666 4.725513 0.275716 -24.920843 -3.877768 -1.077835 -11.634315 6.775642 25.000000 -84.108162 -0.550015 -4.905464 -53.033264 6.539637 76.042587 -24.152468 -10.011804 -53.476013 -17.751766 -2.328524 23.738478 57.554157 10.192515 63.117271 45.128792 -31.093119 37.168800 41.167358 -0.161662 -81.129875 21.545059 5.196403 17.966240 9.931355 6.805125 1.713318 1.003035 -31.338400 2.498585 29.183916 -3.163671 -0.066567 3.484143 -3.552811 -1.348868 8.084203 -14.381397 27.463436 
-0.108929 46.637115 0.050166 1.039386 9.412541 96.411140 0.000000 0.000000 0.000000 17.767273 -1.134596 5.505483 17.507658 4.053083 0.229030 -24.883690 -3.210449 -0.583291 -10.606648 5.898958 25.000000 -83.308609 -0.285457 -5.360291 -53.030182 7.062929 74.885963 -23.973166 -10.719809 -53.317928 -16.781034 -2.361039 23.790920 57.801720 10.273911 63.244354 45.611736 -30.866529 37.251602 41.589733 -1.195037 -81.289627 21.349396 6.289458 18.429567 10.174157 6.387038 1.551700 0.852860 -31.013748 2.336260 28.431665 -2.197103 0.218150 4.065794 -3.841788 -1.389207 7.836856 -13.823264 27.158972 
-0.117870 46.634045 0.186231 0.336423 9.267421 95.787468 0.000000 0.000000 0.000000 17.691334 -1.442117 5.448164 17.621460 3.420546 0.175951 -25.036186 -2.496686 0.038904 -9.757978 5.213874 25.000000 -82.746330 0.074786 -5.689598 -53.497086 7.288970 74.648712 -23.750051 -11.875916 -52.898926 -15.701720 -2.119344 23.920065 57.791656 10.487897 63.200226 45.359634 -30.447517 35.941608 41.541824 -3.773373 -81.509926 21.272379 7.256367 18.806635 10.339369 5.954823 1.483954 0.756423 -30.664845 2.238107 27.825262 -1.327785 0.467576 4.536935 -4.167736 -1.394005 7.840440 -13.276455 27.180374 
-0.137205 46.621063 0.251739 -0.128537 9.003883 95.341454 0.000000 0.000000 0.000000 17.518574 -1.788094 5.382924 17.746725 2.763726 0.130952 -25.132111 -1.600058 0.902122 -9.147993 4.894364 25.000000 -82.684242 0.185403 -5.728549 -53.738979 7.557813 74.096054 -23.430277 -12.921639 -52.568226 -14.733354 -1.888093 24.033606 57.708542 10.815062 63.097507 44.612675 -29.733200 33.537010 41.025219 -6.978808 -81.625374 21.039732 7.851862 19.072710 10.436747 5.693443 1.397549 0.733415 -30.412035 2.144755 27.127254 -0.830063 0.625412 5.093747 -4.352194 -1.427242 7.938014 -12.846595 27.440130 
-0.149168 46.620548 0.272585 -0.721706 8.964145 94.742432 0.000000 0.000000 0.000000 17.526037 -1.536567 5.432705 17.844042 2.027510 0.074079 -25.074553 -1.032131 1.810640 -8.400494 4.872375 25.000000 -82.901566 0.272458 -5.603348 -53.922482 7.423786 73.618538 -22.999077 -13.690321 -52.401154 -13.913757 -1.900085 24.066820 57.708916 11.214915 63.028542 44.047115 -29.676151 33.850273 40.942184 -7.701879 -81.624245 21.222860 8.515170 19.321035 10.392670 5.330667 1.321940 0.750651 -29.964724 2.070809 26.648392 -0.244645 0.789544 5.627973 -4.565171 -1.414485 8.282066 -12.245577 28.021629 
-0.149407 46.635738 0.274900 -1.513641 9.205827 93.958565 0.000000 0.000000 0.000000 17.755125 -0.660337 5.618544 17.875822 1.267734 0.023190 -25.052368 -0.780379 2.667939 -7.406801 5.073556 25.000000 -83.187637 0.375627 -5.449254 -54.203178 6.825414 73.650322 -22.620287 -14.948921 -51.960510 -13.214160 -2.129993 24.042055 57.766483 11.627665 62.996780 43.538666 -29.736328 34.516865 41.104343 -7.417891 -81.620094 21.849918 9.433473 19.650940 10.285849 4.803941 1.204553 0.753368 -29.298502 1.918359 26.495535 0.556195 1.029656 6.071508 -4.890681 -1.475339 8.733661 -11.460561 28.585329 
-0.154529 46.644470 0.258597 -2.553595 9.365855 93.012672 0.000000 0.000000 0.000000 17.863340 0.845836 5.946531 17.833584 0.722864 -0.015366 -24.934612 -0.716321 3.550920 -6.292861 5.691835 25.000000 -83.804886 0.521050 -5.101861 -54.632103 5.899029 73.890465 -22.085844 -15.753039 -51.706532 -12.615254 -2.516694 23.987850 57.996426 12.069060 63.055550 42.812416 -29.698568 34.423668 41.267437 -7.309723 -81.653763 22.428699 10.566590 20.070742 10.257112 4.169252 1.051031 0.714571 -28.501001 1.761521 26.247799 1.581477 1.345417 6.450517 -5.279739 -1.531437 9.013201 -10.663607 28.731451 
-0.166065 46.628731 0.135397 -2.641858 9.257898 92.925125 0.000000 0.000000 0.000000 17.635355 1.740403 6.168444 17.785070 0.794542 -0.011457 -24.651882 -0.775824 3.731338 -6.309284 6.337958 25.000000 -84.539680 0.504098 -4.685848 -54.870506 5.335283 74.623779 -21.910643 -16.216515 -51.518848 -12.987184 -2.754115 23.903351 57.935112 12.338835 62.972458 42.434711 -29.329905 34.224167 41.141129 -7.056386 -81.625320 22.369183 10.468765 20.051510 10.238916 4.189284 1.062186 0.741624 -28.344393 1.794884 26.159969 1.581931 1.337447 6.362079 -5.417784 -1.565417 9.057901 -10.607149 28.747601 
-0.161883 46.613670 -0.015514 -2.503199 9.239373 93.065155 0.000000 0.000000 0.000000 17.442165 2.720649 6.401717 17.825212 0.999421 -0.000049 -24.540525 -1.275662 3.401017 -6.654788 6.856178 25.000000 -85.032784 0.303532 -4.404502 -54.695362 4.572810 75.362999 -21.823418 -16.145353 -51.535324 -13.617438 -2.806073 23.854692 57.614845 12.370612 62.784992 42.573208 -29.466496 35.579239 41.363384 -5.024125 -81.536148 22.289474 10.048947 19.872347 10.222562 4.413003 1.136696 0.714029 -28.332912 1.870026 26.336720 1.396472 1.288224 6.111615 -5.615761 -1.638446 8.945195 -10.727390 28.703665 
-0.147180 46.588017 -0.238373 -1.454163 9.176783 93.997963 0.000000 0.000000 0.000000 17.105864 3.099049 6.510016 18.094824 1.728369 0.050664 -24.701210 -2.408325 2.342944 -7.733945 7.335143 25.000000 -85.250572 -0.166886 -4.267574 -54.295658 3.539162 76.474243 -22.030790 -15.907642 -51.507885 -14.832466 -2.649796 23.819204 57.088467 12.069693 62.534622 42.736645 -29.928478 37.262619 41.601582 -1.741870 -81.318405 21.866652 8.485828 19.263182 10.186097 5.261596 1.315395 0.729003 -28.879269 2.044898 26.696360 0.126473 0.915790 5.760396 -5.331067 -1.595922 8.732697 -11.521942 28.794907 
